<svg width="650px" height="300px" viewBox="0 0 650 300" xmlns="http://www.w3.org/2000/svg">

  <rect x="10" y="10" width="630" height="280" rx="2" ry="2" style="fill:rgb(240, 240, 240);" />

  <g transform="translate(50, 50)">

  <path d="M 0 0 H 200" stroke="rgb(200, 200, 200)"/>
    <path d="M 0 20 H 200" stroke="rgb(200, 200, 200)"/>
    <path d="M 0 40 H 200" stroke="rgb(200, 200, 200)"/>
    <path d="M 0 60 H 200" stroke="rgb(200, 200, 200)"/>
    <path d="M 0 80 H 200" stroke="rgb(200, 200, 200)"/>
    <path d="M 0 100 H 200" stroke="rgb(200, 200, 200)"/>
    <path d="M 0 120 H 200" stroke="rgb(200, 200, 200)"/>
    <path d="M 0 140 H 200" stroke="rgb(200, 200, 200)"/>
    <path d="M 0 160 H 200" stroke="rgb(200, 200, 200)"/>
    <path d="M 0 180 H 200" stroke="rgb(200, 200, 200)"/>
    <path d="M 0 200 H 200" stroke="rgb(200, 200, 200)"/>
    
    <path d="M 0 0 V 200" stroke="rgb(200, 200, 200)"/>
    <path d="M 20 0 V 200" stroke="rgb(200, 200, 200)"/>
    <path d="M 40 0 V 200" stroke="rgb(200, 200, 200)"/>
    <path d="M 60 0 V 200" stroke="rgb(200, 200, 200)"/>
    <path d="M 80 0 V 200" stroke="rgb(200, 200, 200)"/>
    <path d="M 100 0 V 200" stroke="rgb(200, 200, 200)"/>
    <path d="M 120 0 V 200" stroke="rgb(200, 200, 200)"/>
    <path d="M 140 0 V 200" stroke="rgb(200, 200, 200)"/>
    <path d="M 160 0 V 200" stroke="rgb(200, 200, 200)"/>
    <path d="M 180 0 V 200" stroke="rgb(200, 200, 200)"/>
    <path d="M 200 0 V 200" stroke="rgb(200, 200, 200)"/>
    
    <path d="M 0 100 C 40 20, 60 20, 100 100 S 160 180, 200 100" stroke="black" fill="transparent"/>

    <path d="M 0 100 L 40 20" stroke="rgb(66, 201, 241)"/>
    <path d="M 100 100 L 60 20" stroke="rgb(66, 201, 241)"/>
    <path d="M 100 100 L 140 180" stroke="rgb(66, 201, 241)"/>
    <path d="M 200 100 L 160 180" stroke="rgb(66, 201, 241)"/>

    <circle cx="0" cy="100" r="3" style="fill:rgb(80, 80, 80);" />
    <circle cx="100" cy="100" r="3" style="fill:rgb(80, 80, 80);" />
    <circle cx="200" cy="100" r="3" style="fill:rgb(80, 80, 80);" />

    <circle cx="40" cy="20" r="3" style="fill:rgb(66, 201, 241);" />
    <circle cx="60" cy="20" r="3" style="fill:rgb(66, 201, 241);" />
    <circle cx="140" cy="180" r="3" style="fill:rgb(66, 201, 241);" />
    <circle cx="160" cy="180" r="3" style="fill:rgb(66, 201, 241);" />

    <text x="10" y="105" font-size="14" fill="rgb(80,80,80)" font-style="italic">P1</text>
    <text x="76" y="105" font-size="14" fill="rgb(80,80,80)" font-style="italic">P2</text>
    <text x="176" y="105" font-size="14" fill="rgb(80,80,80)" font-style="italic">P3</text>

    <text x="16" y="20" font-size="14" fill="rgb(66, 201, 241)" font-style="italic" font-weight="bold">C1</text>
    <text x="68" y="20" font-size="14" fill="rgb(66, 201, 241)" font-style="italic" font-weight="bold">C2</text>
    <text x="116" y="194" font-size="14" fill="rgb(66, 201, 241)" font-style="italic" font-weight="bold">C3</text>
    <text x="168" y="194" font-size="14" fill="rgb(66, 201, 241)" font-style="italic" font-weight="bold">C4</text>
  </g>

  <g transform="translate(400, 150)">
    <path id="path" d="M 0 0 C 40 -80, 60 -80, 100 0 S 160 80, 200 0" stroke="rgb(220, 220, 220)" stroke-width="2" fill="transparent"/>
    <circle id="target" cx="0" cy="0" r="10" style="fill:rgb(66, 201, 241);" />
    <animateMotion id="anim0" href="#target" dur="5s" rotate="auto" path="M 0 0 C 40 -80, 60 -80, 100 0 S 160 80, 200 0" begin="1s; anim0.end + 2s" fill="freeze"/>
  </g>


  <path d="M 30 30 V 60" stroke="rgb(180, 180, 180)"/>
  <path d="M 30 60 L 27 55" stroke="rgb(180, 180, 180)"/>
  <path d="M 30 60 L 33 55" stroke="rgb(180, 180, 180)"/>
  <path d="M 30 30 H 60" stroke="rgb(180, 180, 180)"/>
  <path d="M 60 30 L 55 27" stroke="rgb(180, 180, 180)"/>
  <path d="M 60 30 L 55 33" stroke="rgb(180, 180, 180)"/>

  <text x="44" y="26" font-size="14" fill="rgb(160,160,160)" font-style="italic">x</text>
  <text x="20" y="50" font-size="14" fill="rgb(160,160,160)" font-style="italic">y</text>

</svg>
